<svg width="281" height="65" viewBox="0 0 281 65" fill="none" xmlns="http://www.w3.org/2000/svg">
<path d="M28.059 29.628C28.059 31.5393 27.6203 33.294 26.743 34.892C25.8657 36.4587 24.5183 37.7277 22.701 38.699C20.8837 39.6703 18.6277 40.156 15.933 40.156H10.951V52H2.914V19.006H15.933C18.565 19.006 20.7897 19.4603 22.607 20.369C24.4243 21.2777 25.7873 22.531 26.696 24.129C27.6047 25.727 28.059 27.56 28.059 29.628ZM15.322 33.764C16.8573 33.764 18.001 33.4037 18.753 32.683C19.505 31.9623 19.881 30.944 19.881 29.628C19.881 28.312 19.505 27.2937 18.753 26.573C18.001 25.8523 16.8573 25.492 15.322 25.492H10.951V33.764H15.322ZM30.6451 38.84C30.6451 36.1453 31.1464 33.7797 32.1491 31.743C33.1831 29.7063 34.5774 28.1397 36.3321 27.043C38.0868 25.9463 40.0451 25.398 42.2071 25.398C44.0558 25.398 45.6694 25.774 47.0481 26.526C48.4581 27.278 49.5391 28.265 50.2911 29.487V25.774H58.3281V52H50.2911V48.287C49.5078 49.509 48.4111 50.496 47.0011 51.248C45.6224 52 44.0088 52.376 42.1601 52.376C40.0294 52.376 38.0868 51.8277 36.3321 50.731C34.5774 49.603 33.1831 48.0207 32.1491 45.984C31.1464 43.916 30.6451 41.5347 30.6451 38.84ZM50.2911 38.887C50.2911 36.8817 49.7271 35.2993 48.5991 34.14C47.5024 32.9807 46.1551 32.401 44.5571 32.401C42.9591 32.401 41.5961 32.9807 40.4681 34.14C39.3714 35.268 38.8231 36.8347 38.8231 38.84C38.8231 40.8453 39.3714 42.4433 40.4681 43.634C41.5961 44.7933 42.9591 45.373 44.5571 45.373C46.1551 45.373 47.5024 44.7933 48.5991 43.634C49.7271 42.4747 50.2911 40.8923 50.2911 38.887ZM80.1225 25.492C83.1932 25.492 85.6372 26.4947 87.4545 28.5C89.3032 30.474 90.2275 33.2 90.2275 36.678V52H82.2375V37.759C82.2375 36.0043 81.7832 34.6413 80.8745 33.67C79.9659 32.6987 78.7438 32.213 77.2085 32.213C75.6732 32.213 74.4512 32.6987 73.5425 33.67C72.6338 34.6413 72.1795 36.0043 72.1795 37.759V52H64.1425V25.774H72.1795V29.252C72.9942 28.0927 74.0908 27.184 75.4695 26.526C76.8482 25.8367 78.3992 25.492 80.1225 25.492ZM110.429 45.185V52H106.34C103.426 52 101.155 51.295 99.5254 49.885C97.8961 48.4437 97.0814 46.1093 97.0814 42.882V32.448H93.8854V25.774H97.0814V19.382H105.118V25.774H110.382V32.448H105.118V42.976C105.118 43.7593 105.306 44.3233 105.682 44.668C106.058 45.0127 106.685 45.185 107.562 45.185H110.429ZM125.575 52.376C123.288 52.376 121.251 51.9843 119.465 51.201C117.679 50.4177 116.269 49.3523 115.235 48.005C114.201 46.6263 113.622 45.091 113.496 43.399H121.439C121.533 44.3077 121.956 45.044 122.708 45.608C123.46 46.172 124.385 46.454 125.481 46.454C126.484 46.454 127.252 46.266 127.784 45.89C128.348 45.4827 128.63 44.9657 128.63 44.339C128.63 43.587 128.239 43.0387 127.455 42.694C126.672 42.318 125.403 41.9107 123.648 41.472C121.768 41.0333 120.202 40.579 118.948 40.109C117.695 39.6077 116.614 38.84 115.705 37.806C114.797 36.7407 114.342 35.315 114.342 33.529C114.342 32.025 114.75 30.662 115.564 29.44C116.41 28.1867 117.632 27.1997 119.23 26.479C120.86 25.7583 122.787 25.398 125.011 25.398C128.301 25.398 130.886 26.2127 132.766 27.842C134.678 29.4713 135.774 31.6333 136.056 34.328H128.63C128.505 33.4193 128.098 32.6987 127.408 32.166C126.75 31.6333 125.873 31.367 124.776 31.367C123.836 31.367 123.116 31.555 122.614 31.931C122.113 32.2757 121.862 32.7613 121.862 33.388C121.862 34.14 122.254 34.704 123.037 35.08C123.852 35.456 125.105 35.832 126.797 36.208C128.74 36.7093 130.322 37.2107 131.544 37.712C132.766 38.182 133.832 38.9653 134.74 40.062C135.68 41.1273 136.166 42.5687 136.197 44.386C136.197 45.9213 135.759 47.3 134.881 48.522C134.035 49.7127 132.798 50.6527 131.168 51.342C129.57 52.0313 127.706 52.376 125.575 52.376Z" fill="#2ED25C"/>
<path d="M139.751 35.456C139.751 32.1973 140.456 29.299 141.866 26.761C143.276 24.1917 145.235 22.202 147.741 20.792C150.279 19.3507 153.146 18.63 156.342 18.63C160.259 18.63 163.612 19.664 166.4 21.732C169.189 23.8 171.053 26.62 171.993 30.192H163.157C162.499 28.8133 161.559 27.7637 160.337 27.043C159.147 26.3223 157.784 25.962 156.248 25.962C153.773 25.962 151.768 26.8237 150.232 28.547C148.697 30.2703 147.929 32.5733 147.929 35.456C147.929 38.3387 148.697 40.6417 150.232 42.365C151.768 44.0883 153.773 44.95 156.248 44.95C157.784 44.95 159.147 44.5897 160.337 43.869C161.559 43.1483 162.499 42.0987 163.157 40.72H171.993C171.053 44.292 169.189 47.112 166.4 49.18C163.612 51.2167 160.259 52.235 156.342 52.235C153.146 52.235 150.279 51.53 147.741 50.12C145.235 48.6787 143.276 46.689 141.866 44.151C140.456 41.613 139.751 38.7147 139.751 35.456ZM175.317 38.84C175.317 36.1453 175.818 33.7797 176.821 31.743C177.855 29.7063 179.249 28.1397 181.004 27.043C182.759 25.9463 184.717 25.398 186.879 25.398C188.728 25.398 190.341 25.774 191.72 26.526C193.13 27.278 194.211 28.265 194.963 29.487V25.774H203V52H194.963V48.287C194.18 49.509 193.083 50.496 191.673 51.248C190.294 52 188.681 52.376 186.832 52.376C184.701 52.376 182.759 51.8277 181.004 50.731C179.249 49.603 177.855 48.0207 176.821 45.984C175.818 43.916 175.317 41.5347 175.317 38.84ZM194.963 38.887C194.963 36.8817 194.399 35.2993 193.271 34.14C192.174 32.9807 190.827 32.401 189.229 32.401C187.631 32.401 186.268 32.9807 185.14 34.14C184.043 35.268 183.495 36.8347 183.495 38.84C183.495 40.8453 184.043 42.4433 185.14 43.634C186.268 44.7933 187.631 45.373 189.229 45.373C190.827 45.373 192.174 44.7933 193.271 43.634C194.399 42.4747 194.963 40.8923 194.963 38.887ZM216.851 30.145C217.791 28.7037 218.966 27.5757 220.376 26.761C221.786 25.915 223.353 25.492 225.076 25.492V33.999H222.867C220.862 33.999 219.358 34.4377 218.355 35.315C217.353 36.161 216.851 37.665 216.851 39.827V52H208.814V25.774H216.851V30.145ZM253.64 38.464C253.64 39.216 253.593 39.9993 253.499 40.814H235.31C235.435 42.4433 235.952 43.6967 236.861 44.574C237.801 45.42 238.945 45.843 240.292 45.843C242.297 45.843 243.692 44.997 244.475 43.305H253.029C252.59 45.0283 251.791 46.5793 250.632 47.958C249.504 49.3367 248.078 50.4177 246.355 51.201C244.632 51.9843 242.705 52.376 240.574 52.376C238.005 52.376 235.717 51.8277 233.712 50.731C231.707 49.6343 230.14 48.0677 229.012 46.031C227.884 43.9943 227.32 41.613 227.32 38.887C227.32 36.161 227.868 33.7797 228.965 31.743C230.093 29.7063 231.66 28.1397 233.665 27.043C235.67 25.9463 237.973 25.398 240.574 25.398C243.112 25.398 245.368 25.9307 247.342 26.996C249.316 28.0613 250.851 29.581 251.948 31.555C253.076 33.529 253.64 35.832 253.64 38.464ZM245.415 36.349C245.415 34.9703 244.945 33.8737 244.005 33.059C243.065 32.2443 241.89 31.837 240.48 31.837C239.133 31.837 237.989 32.2287 237.049 33.012C236.14 33.7953 235.576 34.9077 235.357 36.349H245.415Z" fill="#7381FF"/>
<circle cx="266.5" cy="44.5" r="7.5" fill="#7381FF"/>
</svg>
